%TF.GenerationSoftware,KiCad,Pcbnew,(5.1.12)-1*%
%TF.CreationDate,2022-06-15T15:17:17-04:00*%
%TF.ProjectId,flex_interface_x4,666c6578-5f69-46e7-9465-72666163655f,rev?*%
%TF.SameCoordinates,Original*%
%TF.FileFunction,Soldermask,Top*%
%TF.FilePolarity,Negative*%
%FSLAX46Y46*%
G04 Gerber Fmt 4.6, Leading zero omitted, Abs format (unit mm)*
G04 Created by KiCad (PCBNEW (5.1.12)-1) date 2022-06-15 15:17:17*
%MOMM*%
%LPD*%
G01*
G04 APERTURE LIST*
%ADD10C,4.000000*%
G04 APERTURE END LIST*
%TO.C,Z1*%
G36*
G01*
X88753080Y-95875640D02*
X88753080Y-95575640D01*
G75*
G02*
X88763080Y-95565640I10000J0D01*
G01*
X92763080Y-95565640D01*
G75*
G02*
X92773080Y-95575640I0J-10000D01*
G01*
X92773080Y-95875640D01*
G75*
G02*
X92763080Y-95885640I-10000J0D01*
G01*
X88763080Y-95885640D01*
G75*
G02*
X88753080Y-95875640I0J10000D01*
G01*
G37*
G36*
G01*
X88753080Y-95375640D02*
X88753080Y-95075640D01*
G75*
G02*
X88763080Y-95065640I10000J0D01*
G01*
X92763080Y-95065640D01*
G75*
G02*
X92773080Y-95075640I0J-10000D01*
G01*
X92773080Y-95375640D01*
G75*
G02*
X92763080Y-95385640I-10000J0D01*
G01*
X88763080Y-95385640D01*
G75*
G02*
X88753080Y-95375640I0J10000D01*
G01*
G37*
G36*
G01*
X88753080Y-94875640D02*
X88753080Y-94575640D01*
G75*
G02*
X88763080Y-94565640I10000J0D01*
G01*
X92763080Y-94565640D01*
G75*
G02*
X92773080Y-94575640I0J-10000D01*
G01*
X92773080Y-94875640D01*
G75*
G02*
X92763080Y-94885640I-10000J0D01*
G01*
X88763080Y-94885640D01*
G75*
G02*
X88753080Y-94875640I0J10000D01*
G01*
G37*
G36*
G01*
X88753080Y-94375640D02*
X88753080Y-94075640D01*
G75*
G02*
X88763080Y-94065640I10000J0D01*
G01*
X92763080Y-94065640D01*
G75*
G02*
X92773080Y-94075640I0J-10000D01*
G01*
X92773080Y-94375640D01*
G75*
G02*
X92763080Y-94385640I-10000J0D01*
G01*
X88763080Y-94385640D01*
G75*
G02*
X88753080Y-94375640I0J10000D01*
G01*
G37*
G36*
G01*
X88753080Y-93875640D02*
X88753080Y-93575640D01*
G75*
G02*
X88763080Y-93565640I10000J0D01*
G01*
X92763080Y-93565640D01*
G75*
G02*
X92773080Y-93575640I0J-10000D01*
G01*
X92773080Y-93875640D01*
G75*
G02*
X92763080Y-93885640I-10000J0D01*
G01*
X88763080Y-93885640D01*
G75*
G02*
X88753080Y-93875640I0J10000D01*
G01*
G37*
G36*
G01*
X88753080Y-93375640D02*
X88753080Y-93075640D01*
G75*
G02*
X88763080Y-93065640I10000J0D01*
G01*
X92763080Y-93065640D01*
G75*
G02*
X92773080Y-93075640I0J-10000D01*
G01*
X92773080Y-93375640D01*
G75*
G02*
X92763080Y-93385640I-10000J0D01*
G01*
X88763080Y-93385640D01*
G75*
G02*
X88753080Y-93375640I0J10000D01*
G01*
G37*
G36*
G01*
X88753080Y-92875640D02*
X88753080Y-92575640D01*
G75*
G02*
X88763080Y-92565640I10000J0D01*
G01*
X92763080Y-92565640D01*
G75*
G02*
X92773080Y-92575640I0J-10000D01*
G01*
X92773080Y-92875640D01*
G75*
G02*
X92763080Y-92885640I-10000J0D01*
G01*
X88763080Y-92885640D01*
G75*
G02*
X88753080Y-92875640I0J10000D01*
G01*
G37*
G36*
G01*
X88753080Y-92375640D02*
X88753080Y-92075640D01*
G75*
G02*
X88763080Y-92065640I10000J0D01*
G01*
X92763080Y-92065640D01*
G75*
G02*
X92773080Y-92075640I0J-10000D01*
G01*
X92773080Y-92375640D01*
G75*
G02*
X92763080Y-92385640I-10000J0D01*
G01*
X88763080Y-92385640D01*
G75*
G02*
X88753080Y-92375640I0J10000D01*
G01*
G37*
G36*
G01*
X88753080Y-91875640D02*
X88753080Y-91575640D01*
G75*
G02*
X88763080Y-91565640I10000J0D01*
G01*
X92763080Y-91565640D01*
G75*
G02*
X92773080Y-91575640I0J-10000D01*
G01*
X92773080Y-91875640D01*
G75*
G02*
X92763080Y-91885640I-10000J0D01*
G01*
X88763080Y-91885640D01*
G75*
G02*
X88753080Y-91875640I0J10000D01*
G01*
G37*
G36*
G01*
X88753080Y-91375640D02*
X88753080Y-91075640D01*
G75*
G02*
X88763080Y-91065640I10000J0D01*
G01*
X92763080Y-91065640D01*
G75*
G02*
X92773080Y-91075640I0J-10000D01*
G01*
X92773080Y-91375640D01*
G75*
G02*
X92763080Y-91385640I-10000J0D01*
G01*
X88763080Y-91385640D01*
G75*
G02*
X88753080Y-91375640I0J10000D01*
G01*
G37*
G36*
G01*
X88753080Y-90875640D02*
X88753080Y-90575640D01*
G75*
G02*
X88763080Y-90565640I10000J0D01*
G01*
X92763080Y-90565640D01*
G75*
G02*
X92773080Y-90575640I0J-10000D01*
G01*
X92773080Y-90875640D01*
G75*
G02*
X92763080Y-90885640I-10000J0D01*
G01*
X88763080Y-90885640D01*
G75*
G02*
X88753080Y-90875640I0J10000D01*
G01*
G37*
G36*
G01*
X88753080Y-90375640D02*
X88753080Y-90075640D01*
G75*
G02*
X88763080Y-90065640I10000J0D01*
G01*
X92763080Y-90065640D01*
G75*
G02*
X92773080Y-90075640I0J-10000D01*
G01*
X92773080Y-90375640D01*
G75*
G02*
X92763080Y-90385640I-10000J0D01*
G01*
X88763080Y-90385640D01*
G75*
G02*
X88753080Y-90375640I0J10000D01*
G01*
G37*
G36*
G01*
X88753080Y-89875640D02*
X88753080Y-89575640D01*
G75*
G02*
X88763080Y-89565640I10000J0D01*
G01*
X92763080Y-89565640D01*
G75*
G02*
X92773080Y-89575640I0J-10000D01*
G01*
X92773080Y-89875640D01*
G75*
G02*
X92763080Y-89885640I-10000J0D01*
G01*
X88763080Y-89885640D01*
G75*
G02*
X88753080Y-89875640I0J10000D01*
G01*
G37*
G36*
G01*
X88753080Y-89375640D02*
X88753080Y-89075640D01*
G75*
G02*
X88763080Y-89065640I10000J0D01*
G01*
X92763080Y-89065640D01*
G75*
G02*
X92773080Y-89075640I0J-10000D01*
G01*
X92773080Y-89375640D01*
G75*
G02*
X92763080Y-89385640I-10000J0D01*
G01*
X88763080Y-89385640D01*
G75*
G02*
X88753080Y-89375640I0J10000D01*
G01*
G37*
G36*
G01*
X88753080Y-88875640D02*
X88753080Y-88575640D01*
G75*
G02*
X88763080Y-88565640I10000J0D01*
G01*
X92763080Y-88565640D01*
G75*
G02*
X92773080Y-88575640I0J-10000D01*
G01*
X92773080Y-88875640D01*
G75*
G02*
X92763080Y-88885640I-10000J0D01*
G01*
X88763080Y-88885640D01*
G75*
G02*
X88753080Y-88875640I0J10000D01*
G01*
G37*
G36*
G01*
X88753080Y-88375640D02*
X88753080Y-88075640D01*
G75*
G02*
X88763080Y-88065640I10000J0D01*
G01*
X92763080Y-88065640D01*
G75*
G02*
X92773080Y-88075640I0J-10000D01*
G01*
X92773080Y-88375640D01*
G75*
G02*
X92763080Y-88385640I-10000J0D01*
G01*
X88763080Y-88385640D01*
G75*
G02*
X88753080Y-88375640I0J10000D01*
G01*
G37*
G36*
G01*
X88753080Y-87875640D02*
X88753080Y-87575640D01*
G75*
G02*
X88763080Y-87565640I10000J0D01*
G01*
X92763080Y-87565640D01*
G75*
G02*
X92773080Y-87575640I0J-10000D01*
G01*
X92773080Y-87875640D01*
G75*
G02*
X92763080Y-87885640I-10000J0D01*
G01*
X88763080Y-87885640D01*
G75*
G02*
X88753080Y-87875640I0J10000D01*
G01*
G37*
G36*
G01*
X88753080Y-87375640D02*
X88753080Y-87075640D01*
G75*
G02*
X88763080Y-87065640I10000J0D01*
G01*
X92763080Y-87065640D01*
G75*
G02*
X92773080Y-87075640I0J-10000D01*
G01*
X92773080Y-87375640D01*
G75*
G02*
X92763080Y-87385640I-10000J0D01*
G01*
X88763080Y-87385640D01*
G75*
G02*
X88753080Y-87375640I0J10000D01*
G01*
G37*
G36*
G01*
X88753080Y-86875640D02*
X88753080Y-86575640D01*
G75*
G02*
X88763080Y-86565640I10000J0D01*
G01*
X92763080Y-86565640D01*
G75*
G02*
X92773080Y-86575640I0J-10000D01*
G01*
X92773080Y-86875640D01*
G75*
G02*
X92763080Y-86885640I-10000J0D01*
G01*
X88763080Y-86885640D01*
G75*
G02*
X88753080Y-86875640I0J10000D01*
G01*
G37*
G36*
G01*
X88753080Y-86375640D02*
X88753080Y-86075640D01*
G75*
G02*
X88763080Y-86065640I10000J0D01*
G01*
X92763080Y-86065640D01*
G75*
G02*
X92773080Y-86075640I0J-10000D01*
G01*
X92773080Y-86375640D01*
G75*
G02*
X92763080Y-86385640I-10000J0D01*
G01*
X88763080Y-86385640D01*
G75*
G02*
X88753080Y-86375640I0J10000D01*
G01*
G37*
G36*
G01*
X88753080Y-85875640D02*
X88753080Y-85575640D01*
G75*
G02*
X88763080Y-85565640I10000J0D01*
G01*
X92763080Y-85565640D01*
G75*
G02*
X92773080Y-85575640I0J-10000D01*
G01*
X92773080Y-85875640D01*
G75*
G02*
X92763080Y-85885640I-10000J0D01*
G01*
X88763080Y-85885640D01*
G75*
G02*
X88753080Y-85875640I0J10000D01*
G01*
G37*
G36*
G01*
X88753080Y-85375640D02*
X88753080Y-85075640D01*
G75*
G02*
X88763080Y-85065640I10000J0D01*
G01*
X92763080Y-85065640D01*
G75*
G02*
X92773080Y-85075640I0J-10000D01*
G01*
X92773080Y-85375640D01*
G75*
G02*
X92763080Y-85385640I-10000J0D01*
G01*
X88763080Y-85385640D01*
G75*
G02*
X88753080Y-85375640I0J10000D01*
G01*
G37*
G36*
G01*
X88753080Y-84875640D02*
X88753080Y-84575640D01*
G75*
G02*
X88763080Y-84565640I10000J0D01*
G01*
X92763080Y-84565640D01*
G75*
G02*
X92773080Y-84575640I0J-10000D01*
G01*
X92773080Y-84875640D01*
G75*
G02*
X92763080Y-84885640I-10000J0D01*
G01*
X88763080Y-84885640D01*
G75*
G02*
X88753080Y-84875640I0J10000D01*
G01*
G37*
G36*
G01*
X88753080Y-84375640D02*
X88753080Y-84075640D01*
G75*
G02*
X88763080Y-84065640I10000J0D01*
G01*
X92763080Y-84065640D01*
G75*
G02*
X92773080Y-84075640I0J-10000D01*
G01*
X92773080Y-84375640D01*
G75*
G02*
X92763080Y-84385640I-10000J0D01*
G01*
X88763080Y-84385640D01*
G75*
G02*
X88753080Y-84375640I0J10000D01*
G01*
G37*
%TD*%
D10*
%TO.C,TP4*%
X133000000Y-98000000D03*
%TD*%
%TO.C,TP3*%
X133000000Y-92000000D03*
%TD*%
%TO.C,TP2*%
X133000000Y-86000000D03*
%TD*%
%TO.C,TP1*%
X133000000Y-80000000D03*
%TD*%
M02*
