%TF.GenerationSoftware,KiCad,Pcbnew,(5.1.12)-1*%
%TF.CreationDate,2022-06-15T15:17:17-04:00*%
%TF.ProjectId,flex_interface_x4,666c6578-5f69-46e7-9465-72666163655f,rev?*%
%TF.SameCoordinates,Original*%
%TF.FileFunction,Copper,L1,Top*%
%TF.FilePolarity,Positive*%
%FSLAX46Y46*%
G04 Gerber Fmt 4.6, Leading zero omitted, Abs format (unit mm)*
G04 Created by KiCad (PCBNEW (5.1.12)-1) date 2022-06-15 15:17:17*
%MOMM*%
%LPD*%
G01*
G04 APERTURE LIST*
%TA.AperFunction,ConnectorPad*%
%ADD10R,4.000000X0.300000*%
%TD*%
%TA.AperFunction,SMDPad,CuDef*%
%ADD11C,4.000000*%
%TD*%
%TA.AperFunction,Conductor*%
%ADD12C,0.250000*%
%TD*%
G04 APERTURE END LIST*
D10*
%TO.P,Z1,24*%
%TO.N,Net-(Z1-Pad24)*%
X90763080Y-95725640D03*
%TO.P,Z1,23*%
%TO.N,Net-(Z1-Pad23)*%
X90763080Y-95225640D03*
%TO.P,Z1,22*%
%TO.N,Net-(Z1-Pad22)*%
X90763080Y-94725640D03*
%TO.P,Z1,21*%
%TO.N,Net-(Z1-Pad21)*%
X90763080Y-94225640D03*
%TO.P,Z1,20*%
%TO.N,Net-(Z1-Pad20)*%
X90763080Y-93725640D03*
%TO.P,Z1,19*%
%TO.N,Net-(Z1-Pad19)*%
X90763080Y-93225640D03*
%TO.P,Z1,18*%
%TO.N,Net-(Z1-Pad18)*%
X90763080Y-92725640D03*
%TO.P,Z1,17*%
%TO.N,Net-(Z1-Pad17)*%
X90763080Y-92225640D03*
%TO.P,Z1,16*%
%TO.N,Net-(Z1-Pad16)*%
X90763080Y-91725640D03*
%TO.P,Z1,15*%
%TO.N,Net-(Z1-Pad15)*%
X90763080Y-91225640D03*
%TO.P,Z1,14*%
%TO.N,Net-(Z1-Pad14)*%
X90763080Y-90725640D03*
%TO.P,Z1,13*%
%TO.N,Net-(Z1-Pad13)*%
X90763080Y-90225640D03*
%TO.P,Z1,12*%
%TO.N,Net-(Z1-Pad12)*%
X90763080Y-89725640D03*
%TO.P,Z1,11*%
%TO.N,Net-(Z1-Pad11)*%
X90763080Y-89225640D03*
%TO.P,Z1,10*%
%TO.N,Net-(Z1-Pad10)*%
X90763080Y-88725640D03*
%TO.P,Z1,9*%
%TO.N,Net-(Z1-Pad9)*%
X90763080Y-88225640D03*
%TO.P,Z1,8*%
%TO.N,Net-(Z1-Pad8)*%
X90763080Y-87725640D03*
%TO.P,Z1,7*%
%TO.N,Net-(Z1-Pad7)*%
X90763080Y-87225640D03*
%TO.P,Z1,6*%
%TO.N,Net-(Z1-Pad6)*%
X90763080Y-86725640D03*
%TO.P,Z1,5*%
%TO.N,Net-(Z1-Pad5)*%
X90763080Y-86225640D03*
%TO.P,Z1,4*%
%TO.N,Net-(TP4-Pad1)*%
X90763080Y-85725640D03*
%TO.P,Z1,3*%
%TO.N,Net-(TP3-Pad1)*%
X90763080Y-85225640D03*
%TO.P,Z1,2*%
%TO.N,Net-(TP2-Pad1)*%
X90763080Y-84725640D03*
%TO.P,Z1,1*%
%TO.N,Net-(TP1-Pad1)*%
X90763080Y-84225640D03*
%TD*%
D11*
%TO.P,TP4,1*%
%TO.N,Net-(TP4-Pad1)*%
X133000000Y-98000000D03*
%TD*%
%TO.P,TP3,1*%
%TO.N,Net-(TP3-Pad1)*%
X133000000Y-92000000D03*
%TD*%
%TO.P,TP2,1*%
%TO.N,Net-(TP2-Pad1)*%
X133000000Y-86000000D03*
%TD*%
%TO.P,TP1,1*%
%TO.N,Net-(TP1-Pad1)*%
X133000000Y-80000000D03*
%TD*%
D12*
%TO.N,Net-(TP1-Pad1)*%
X133096000Y-79756000D02*
X128601361Y-84250639D01*
X90788079Y-84250639D02*
X90763080Y-84225640D01*
X128601361Y-84250639D02*
X90788079Y-84250639D01*
%TO.N,Net-(TP2-Pad1)*%
X132015640Y-84725640D02*
X90763080Y-84725640D01*
X133096000Y-85806000D02*
X132015640Y-84725640D01*
%TO.N,Net-(TP3-Pad1)*%
X133050000Y-92456000D02*
X124516590Y-92456000D01*
X117286230Y-85225640D02*
X90763080Y-85225640D01*
X124516590Y-92456000D02*
X117286230Y-85225640D01*
%TO.N,Net-(TP4-Pad1)*%
X133050000Y-98506000D02*
X129930180Y-98506000D01*
X117149820Y-85725640D02*
X90763080Y-85725640D01*
X129930180Y-98506000D02*
X117149820Y-85725640D01*
%TD*%
M02*
