%TF.GenerationSoftware,KiCad,Pcbnew,(5.1.12)-1*%
%TF.CreationDate,2022-06-15T15:33:43-04:00*%
%TF.ProjectId,Header_to_ZIF,48656164-6572-45f7-946f-5f5a49462e6b,rev?*%
%TF.SameCoordinates,Original*%
%TF.FileFunction,Paste,Top*%
%TF.FilePolarity,Positive*%
%FSLAX46Y46*%
G04 Gerber Fmt 4.6, Leading zero omitted, Abs format (unit mm)*
G04 Created by KiCad (PCBNEW (5.1.12)-1) date 2022-06-15 15:33:43*
%MOMM*%
%LPD*%
G01*
G04 APERTURE LIST*
%ADD10C,0.100000*%
%ADD11R,0.299999X0.800001*%
%ADD12R,1.000001X1.000001*%
G04 APERTURE END LIST*
D10*
%TO.C,J1*%
G36*
X113625001Y-119620002D02*
G01*
X111225001Y-119620002D01*
X111225001Y-121820003D01*
X112325001Y-121820003D01*
X112325001Y-122670001D01*
X113625001Y-122670001D01*
X113625001Y-119620002D01*
G37*
G36*
X127624993Y-119620002D02*
G01*
X130024994Y-119620002D01*
X130024994Y-121820003D01*
X128924993Y-121820003D01*
X128924993Y-122670001D01*
X127624993Y-122670001D01*
X127624993Y-119620002D01*
G37*
%TD*%
D11*
%TO.C,J1*%
X126374998Y-119220003D03*
X125874999Y-119220003D03*
D12*
X128874996Y-120820002D03*
X112375496Y-120820002D03*
D11*
X124874999Y-119220003D03*
X124375000Y-119220003D03*
X123874998Y-119220003D03*
X123374999Y-119220003D03*
X122874998Y-119220003D03*
X122374999Y-119220003D03*
X121875000Y-119220003D03*
X121374998Y-119220003D03*
X120874999Y-119220003D03*
X120374998Y-119220003D03*
X119874999Y-119220003D03*
X119375000Y-119220003D03*
X118874998Y-119220003D03*
X118374999Y-119220003D03*
X117874997Y-119220003D03*
X117374998Y-119220003D03*
X116874999Y-119220003D03*
X116374998Y-119220003D03*
X115874999Y-119220003D03*
X115374997Y-119220003D03*
X114874998Y-119220003D03*
X125374998Y-119220003D03*
%TD*%
M02*
