M48
; DRILL file {KiCad (5.1.12)-1} date 06/15/22 15:33:47
; FORMAT={-:-/ absolute / inch / decimal}
; #@! TF.CreationDate,2022-06-15T15:33:47-04:00
; #@! TF.GenerationSoftware,Kicad,Pcbnew,(5.1.12)-1
; #@! TF.FileFunction,Plated,1,2,PTH
FMAT,2
INCH
T1C0.0350
%
G90
G05
T1
X4.25Y-4.25
X4.25Y-4.35
X4.35Y-4.25
X4.35Y-4.35
X4.45Y-4.25
X4.45Y-4.35
X4.55Y-4.25
X4.55Y-4.35
X4.65Y-4.25
X4.65Y-4.35
X4.75Y-4.25
X4.75Y-4.35
X4.85Y-4.25
X4.85Y-4.35
X4.95Y-4.25
X4.95Y-4.35
X5.05Y-4.25
X5.05Y-4.35
X5.15Y-4.25
X5.15Y-4.35
X5.25Y-4.25
X5.25Y-4.35
X5.35Y-4.25
X5.35Y-4.35
T0
M30
