%TF.GenerationSoftware,KiCad,Pcbnew,(5.1.12)-1*%
%TF.CreationDate,2022-05-19T13:57:39-04:00*%
%TF.ProjectId,BNC_to_ZIF,424e435f-746f-45f5-9a49-462e6b696361,rev?*%
%TF.SameCoordinates,Original*%
%TF.FileFunction,Copper,L1,Top*%
%TF.FilePolarity,Positive*%
%FSLAX46Y46*%
G04 Gerber Fmt 4.6, Leading zero omitted, Abs format (unit mm)*
G04 Created by KiCad (PCBNEW (5.1.12)-1) date 2022-05-19 13:57:39*
%MOMM*%
%LPD*%
G01*
G04 APERTURE LIST*
%TA.AperFunction,EtchedComponent*%
%ADD10C,0.100000*%
%TD*%
%TA.AperFunction,ComponentPad*%
%ADD11C,2.750000*%
%TD*%
%TA.AperFunction,ComponentPad*%
%ADD12R,1.420000X1.420000*%
%TD*%
%TA.AperFunction,SMDPad,CuDef*%
%ADD13R,0.800001X0.299999*%
%TD*%
%TA.AperFunction,SMDPad,CuDef*%
%ADD14R,1.000001X1.000001*%
%TD*%
%TA.AperFunction,Conductor*%
%ADD15C,0.250000*%
%TD*%
G04 APERTURE END LIST*
D10*
%TO.C,J3*%
G36*
X113430002Y-118759747D02*
G01*
X113430002Y-121159748D01*
X111230001Y-121159748D01*
X111230001Y-120059747D01*
X110380003Y-120059747D01*
X110380003Y-118759747D01*
X113430002Y-118759747D01*
G37*
G36*
X113430002Y-104759755D02*
G01*
X113430002Y-102359755D01*
X111230001Y-102359755D01*
X111230001Y-103459755D01*
X110380003Y-103459755D01*
X110380003Y-104759755D01*
X113430002Y-104759755D01*
G37*
%TD*%
D11*
%TO.P,J1,3*%
%TO.N,Net-(J1-Pad2)*%
X120660000Y-103220000D03*
%TO.P,J1,2*%
X128260000Y-103220000D03*
D12*
%TO.P,J1,1*%
%TO.N,Net-(J1-Pad1)*%
X124460000Y-111020000D03*
%TD*%
%TO.P,J2,1*%
%TO.N,Net-(J2-Pad1)*%
X127000000Y-112500000D03*
D11*
%TO.P,J2,2*%
%TO.N,Net-(J2-Pad2)*%
X123200000Y-120300000D03*
%TO.P,J2,3*%
X130800000Y-120300000D03*
%TD*%
D13*
%TO.P,J3,24*%
%TO.N,Net-(J3-Pad24)*%
X113830001Y-117509752D03*
%TO.P,J3,23*%
%TO.N,Net-(J3-Pad23)*%
X113830001Y-117009753D03*
D14*
%TO.P,J3,MP2*%
%TO.N,Net-(J3-PadMP2)*%
X112230002Y-120009750D03*
%TO.P,J3,MP1*%
%TO.N,Net-(J3-PadMP1)*%
X112230002Y-103510250D03*
D13*
%TO.P,J3,21*%
%TO.N,Net-(J3-Pad21)*%
X113830001Y-116009753D03*
%TO.P,J3,20*%
%TO.N,Net-(J3-Pad20)*%
X113830001Y-115509754D03*
%TO.P,J3,19*%
%TO.N,Net-(J3-Pad19)*%
X113830001Y-115009752D03*
%TO.P,J3,18*%
%TO.N,Net-(J3-Pad18)*%
X113830001Y-114509753D03*
%TO.P,J3,17*%
%TO.N,Net-(J3-Pad17)*%
X113830001Y-114009752D03*
%TO.P,J3,16*%
%TO.N,Net-(J3-Pad16)*%
X113830001Y-113509753D03*
%TO.P,J3,15*%
%TO.N,Net-(J3-Pad15)*%
X113830001Y-113009754D03*
%TO.P,J3,14*%
%TO.N,Net-(J3-Pad14)*%
X113830001Y-112509752D03*
%TO.P,J3,13*%
%TO.N,Net-(J3-Pad13)*%
X113830001Y-112009753D03*
%TO.P,J3,12*%
%TO.N,Net-(J3-Pad12)*%
X113830001Y-111509752D03*
%TO.P,J3,11*%
%TO.N,Net-(J3-Pad11)*%
X113830001Y-111009753D03*
%TO.P,J3,10*%
%TO.N,Net-(J3-Pad10)*%
X113830001Y-110509754D03*
%TO.P,J3,9*%
%TO.N,Net-(J3-Pad9)*%
X113830001Y-110009752D03*
%TO.P,J3,8*%
%TO.N,Net-(J3-Pad8)*%
X113830001Y-109509753D03*
%TO.P,J3,7*%
%TO.N,Net-(J3-Pad7)*%
X113830001Y-109009751D03*
%TO.P,J3,6*%
%TO.N,Net-(J3-Pad6)*%
X113830001Y-108509752D03*
%TO.P,J3,5*%
%TO.N,Net-(J3-Pad5)*%
X113830001Y-108009753D03*
%TO.P,J3,4*%
%TO.N,Net-(J2-Pad2)*%
X113830001Y-107509752D03*
%TO.P,J3,3*%
%TO.N,Net-(J2-Pad1)*%
X113830001Y-107009753D03*
%TO.P,J3,2*%
%TO.N,Net-(J1-Pad2)*%
X113830001Y-106509751D03*
%TO.P,J3,1*%
%TO.N,Net-(J1-Pad1)*%
X113830001Y-106009752D03*
%TO.P,J3,22*%
%TO.N,Net-(J3-Pad22)*%
X113830001Y-116509752D03*
%TD*%
D15*
%TO.N,Net-(J1-Pad2)*%
X115484752Y-103220000D02*
X120660000Y-103220000D01*
X113105000Y-105599752D02*
X115484752Y-103220000D01*
X113105000Y-106419753D02*
X113105000Y-105599752D01*
X113194998Y-106509751D02*
X113105000Y-106419753D01*
X113830001Y-106509751D02*
X113194998Y-106509751D01*
X120660000Y-103220000D02*
X128260000Y-103220000D01*
%TO.N,Net-(J1-Pad1)*%
X119490249Y-111020000D02*
X124460000Y-111020000D01*
X114480001Y-106009752D02*
X119490249Y-111020000D01*
X113830001Y-106009752D02*
X114480001Y-106009752D01*
%TO.N,Net-(J2-Pad1)*%
X119970248Y-112500000D02*
X127000000Y-112500000D01*
X114480001Y-107009753D02*
X119970248Y-112500000D01*
X113830001Y-107009753D02*
X114480001Y-107009753D01*
%TO.N,Net-(J2-Pad2)*%
X114343590Y-107509752D02*
X123200000Y-116366162D01*
X123200000Y-116366162D02*
X123200000Y-120300000D01*
X113830001Y-107509752D02*
X114343590Y-107509752D01*
X123200000Y-120300000D02*
X130800000Y-120300000D01*
%TD*%
M02*
