%TF.GenerationSoftware,KiCad,Pcbnew,(5.1.12)-1*%
%TF.CreationDate,2022-05-16T16:27:55-04:00*%
%TF.ProjectId,flex_interface_x4,666c6578-5f69-46e7-9465-72666163655f,rev?*%
%TF.SameCoordinates,Original*%
%TF.FileFunction,Legend,Top*%
%TF.FilePolarity,Positive*%
%FSLAX46Y46*%
G04 Gerber Fmt 4.6, Leading zero omitted, Abs format (unit mm)*
G04 Created by KiCad (PCBNEW (5.1.12)-1) date 2022-05-16 16:27:55*
%MOMM*%
%LPD*%
G01*
G04 APERTURE LIST*
%ADD10C,0.150000*%
%ADD11C,0.200000*%
%ADD12C,0.127000*%
%ADD13C,0.249999*%
%ADD14C,0.015000*%
G04 APERTURE END LIST*
D10*
X87686666Y-112562142D02*
X87639047Y-112609761D01*
X87496190Y-112657380D01*
X87400952Y-112657380D01*
X87258095Y-112609761D01*
X87162857Y-112514523D01*
X87115238Y-112419285D01*
X87067619Y-112228809D01*
X87067619Y-112085952D01*
X87115238Y-111895476D01*
X87162857Y-111800238D01*
X87258095Y-111705000D01*
X87400952Y-111657380D01*
X87496190Y-111657380D01*
X87639047Y-111705000D01*
X87686666Y-111752619D01*
X88448571Y-112133571D02*
X88591428Y-112181190D01*
X88639047Y-112228809D01*
X88686666Y-112324047D01*
X88686666Y-112466904D01*
X88639047Y-112562142D01*
X88591428Y-112609761D01*
X88496190Y-112657380D01*
X88115238Y-112657380D01*
X88115238Y-111657380D01*
X88448571Y-111657380D01*
X88543809Y-111705000D01*
X88591428Y-111752619D01*
X88639047Y-111847857D01*
X88639047Y-111943095D01*
X88591428Y-112038333D01*
X88543809Y-112085952D01*
X88448571Y-112133571D01*
X88115238Y-112133571D01*
X89305714Y-111657380D02*
X89400952Y-111657380D01*
X89496190Y-111705000D01*
X89543809Y-111752619D01*
X89591428Y-111847857D01*
X89639047Y-112038333D01*
X89639047Y-112276428D01*
X89591428Y-112466904D01*
X89543809Y-112562142D01*
X89496190Y-112609761D01*
X89400952Y-112657380D01*
X89305714Y-112657380D01*
X89210476Y-112609761D01*
X89162857Y-112562142D01*
X89115238Y-112466904D01*
X89067619Y-112276428D01*
X89067619Y-112038333D01*
X89115238Y-111847857D01*
X89162857Y-111752619D01*
X89210476Y-111705000D01*
X89305714Y-111657380D01*
X90258095Y-111657380D02*
X90353333Y-111657380D01*
X90448571Y-111705000D01*
X90496190Y-111752619D01*
X90543809Y-111847857D01*
X90591428Y-112038333D01*
X90591428Y-112276428D01*
X90543809Y-112466904D01*
X90496190Y-112562142D01*
X90448571Y-112609761D01*
X90353333Y-112657380D01*
X90258095Y-112657380D01*
X90162857Y-112609761D01*
X90115238Y-112562142D01*
X90067619Y-112466904D01*
X90020000Y-112276428D01*
X90020000Y-112038333D01*
X90067619Y-111847857D01*
X90115238Y-111752619D01*
X90162857Y-111705000D01*
X90258095Y-111657380D01*
X91543809Y-112657380D02*
X90972380Y-112657380D01*
X91258095Y-112657380D02*
X91258095Y-111657380D01*
X91162857Y-111800238D01*
X91067619Y-111895476D01*
X90972380Y-111943095D01*
X92734285Y-111657380D02*
X92734285Y-112466904D01*
X92781904Y-112562142D01*
X92829523Y-112609761D01*
X92924761Y-112657380D01*
X93115238Y-112657380D01*
X93210476Y-112609761D01*
X93258095Y-112562142D01*
X93305714Y-112466904D01*
X93305714Y-111657380D01*
X93734285Y-112609761D02*
X93877142Y-112657380D01*
X94115238Y-112657380D01*
X94210476Y-112609761D01*
X94258095Y-112562142D01*
X94305714Y-112466904D01*
X94305714Y-112371666D01*
X94258095Y-112276428D01*
X94210476Y-112228809D01*
X94115238Y-112181190D01*
X93924761Y-112133571D01*
X93829523Y-112085952D01*
X93781904Y-112038333D01*
X93734285Y-111943095D01*
X93734285Y-111847857D01*
X93781904Y-111752619D01*
X93829523Y-111705000D01*
X93924761Y-111657380D01*
X94162857Y-111657380D01*
X94305714Y-111705000D01*
X95067619Y-112133571D02*
X95210476Y-112181190D01*
X95258095Y-112228809D01*
X95305714Y-112324047D01*
X95305714Y-112466904D01*
X95258095Y-112562142D01*
X95210476Y-112609761D01*
X95115238Y-112657380D01*
X94734285Y-112657380D01*
X94734285Y-111657380D01*
X95067619Y-111657380D01*
X95162857Y-111705000D01*
X95210476Y-111752619D01*
X95258095Y-111847857D01*
X95258095Y-111943095D01*
X95210476Y-112038333D01*
X95162857Y-112085952D01*
X95067619Y-112133571D01*
X94734285Y-112133571D01*
X95734285Y-112276428D02*
X96496190Y-112276428D01*
X97305714Y-112133571D02*
X97448571Y-112181190D01*
X97496190Y-112228809D01*
X97543809Y-112324047D01*
X97543809Y-112466904D01*
X97496190Y-112562142D01*
X97448571Y-112609761D01*
X97353333Y-112657380D01*
X96972380Y-112657380D01*
X96972380Y-111657380D01*
X97305714Y-111657380D01*
X97400952Y-111705000D01*
X97448571Y-111752619D01*
X97496190Y-111847857D01*
X97496190Y-111943095D01*
X97448571Y-112038333D01*
X97400952Y-112085952D01*
X97305714Y-112133571D01*
X96972380Y-112133571D01*
X98591428Y-111990714D02*
X98972380Y-111990714D01*
X98734285Y-111657380D02*
X98734285Y-112514523D01*
X98781904Y-112609761D01*
X98877142Y-112657380D01*
X98972380Y-112657380D01*
X99448571Y-112657380D02*
X99353333Y-112609761D01*
X99305714Y-112562142D01*
X99258095Y-112466904D01*
X99258095Y-112181190D01*
X99305714Y-112085952D01*
X99353333Y-112038333D01*
X99448571Y-111990714D01*
X99591428Y-111990714D01*
X99686666Y-112038333D01*
X99734285Y-112085952D01*
X99781904Y-112181190D01*
X99781904Y-112466904D01*
X99734285Y-112562142D01*
X99686666Y-112609761D01*
X99591428Y-112657380D01*
X99448571Y-112657380D01*
X100877142Y-111657380D02*
X101543809Y-111657380D01*
X100877142Y-112657380D01*
X101543809Y-112657380D01*
X101924761Y-112657380D02*
X101924761Y-111657380D01*
X102734285Y-112133571D02*
X102400952Y-112133571D01*
X102400952Y-112657380D02*
X102400952Y-111657380D01*
X102877142Y-111657380D01*
X103258095Y-112276428D02*
X104020000Y-112276428D01*
X104448571Y-111752619D02*
X104496190Y-111705000D01*
X104591428Y-111657380D01*
X104829523Y-111657380D01*
X104924761Y-111705000D01*
X104972380Y-111752619D01*
X105020000Y-111847857D01*
X105020000Y-111943095D01*
X104972380Y-112085952D01*
X104400952Y-112657380D01*
X105020000Y-112657380D01*
X105877142Y-111990714D02*
X105877142Y-112657380D01*
X105639047Y-111609761D02*
X105400952Y-112324047D01*
X106020000Y-112324047D01*
X89210476Y-113307380D02*
X89210476Y-114116904D01*
X89258095Y-114212142D01*
X89305714Y-114259761D01*
X89400952Y-114307380D01*
X89591428Y-114307380D01*
X89686666Y-114259761D01*
X89734285Y-114212142D01*
X89781904Y-114116904D01*
X89781904Y-113307380D01*
X90258095Y-114307380D02*
X90258095Y-113307380D01*
X90496190Y-113307380D01*
X90639047Y-113355000D01*
X90734285Y-113450238D01*
X90781904Y-113545476D01*
X90829523Y-113735952D01*
X90829523Y-113878809D01*
X90781904Y-114069285D01*
X90734285Y-114164523D01*
X90639047Y-114259761D01*
X90496190Y-114307380D01*
X90258095Y-114307380D01*
X91686666Y-114307380D02*
X91686666Y-113783571D01*
X91639047Y-113688333D01*
X91543809Y-113640714D01*
X91353333Y-113640714D01*
X91258095Y-113688333D01*
X91686666Y-114259761D02*
X91591428Y-114307380D01*
X91353333Y-114307380D01*
X91258095Y-114259761D01*
X91210476Y-114164523D01*
X91210476Y-114069285D01*
X91258095Y-113974047D01*
X91353333Y-113926428D01*
X91591428Y-113926428D01*
X91686666Y-113878809D01*
X92067619Y-113640714D02*
X92305714Y-114307380D01*
X92543809Y-113640714D02*
X92305714Y-114307380D01*
X92210476Y-114545476D01*
X92162857Y-114593095D01*
X92067619Y-114640714D01*
X92781904Y-113640714D02*
X93162857Y-113640714D01*
X92924761Y-113307380D02*
X92924761Y-114164523D01*
X92972380Y-114259761D01*
X93067619Y-114307380D01*
X93162857Y-114307380D01*
X93639047Y-114307380D02*
X93543809Y-114259761D01*
X93496190Y-114212142D01*
X93448571Y-114116904D01*
X93448571Y-113831190D01*
X93496190Y-113735952D01*
X93543809Y-113688333D01*
X93639047Y-113640714D01*
X93781904Y-113640714D01*
X93877142Y-113688333D01*
X93924761Y-113735952D01*
X93972380Y-113831190D01*
X93972380Y-114116904D01*
X93924761Y-114212142D01*
X93877142Y-114259761D01*
X93781904Y-114307380D01*
X93639047Y-114307380D01*
X94400952Y-113640714D02*
X94400952Y-114307380D01*
X94400952Y-113735952D02*
X94448571Y-113688333D01*
X94543809Y-113640714D01*
X94686666Y-113640714D01*
X94781904Y-113688333D01*
X94829523Y-113783571D01*
X94829523Y-114307380D01*
X95972380Y-113307380D02*
X96210476Y-114307380D01*
X96400952Y-113593095D01*
X96591428Y-114307380D01*
X96829523Y-113307380D01*
X97067619Y-113307380D02*
X97639047Y-113307380D01*
X97353333Y-114307380D02*
X97353333Y-113307380D01*
X97924761Y-114259761D02*
X98067619Y-114307380D01*
X98305714Y-114307380D01*
X98400952Y-114259761D01*
X98448571Y-114212142D01*
X98496190Y-114116904D01*
X98496190Y-114021666D01*
X98448571Y-113926428D01*
X98400952Y-113878809D01*
X98305714Y-113831190D01*
X98115238Y-113783571D01*
X98020000Y-113735952D01*
X97972380Y-113688333D01*
X97924761Y-113593095D01*
X97924761Y-113497857D01*
X97972380Y-113402619D01*
X98020000Y-113355000D01*
X98115238Y-113307380D01*
X98353333Y-113307380D01*
X98496190Y-113355000D01*
X99400952Y-114307380D02*
X98924761Y-114307380D01*
X98924761Y-113307380D01*
X100448571Y-113402619D02*
X100496190Y-113355000D01*
X100591428Y-113307380D01*
X100829523Y-113307380D01*
X100924761Y-113355000D01*
X100972380Y-113402619D01*
X101020000Y-113497857D01*
X101020000Y-113593095D01*
X100972380Y-113735952D01*
X100400952Y-114307380D01*
X101020000Y-114307380D01*
X101639047Y-113307380D02*
X101734285Y-113307380D01*
X101829523Y-113355000D01*
X101877142Y-113402619D01*
X101924761Y-113497857D01*
X101972380Y-113688333D01*
X101972380Y-113926428D01*
X101924761Y-114116904D01*
X101877142Y-114212142D01*
X101829523Y-114259761D01*
X101734285Y-114307380D01*
X101639047Y-114307380D01*
X101543809Y-114259761D01*
X101496190Y-114212142D01*
X101448571Y-114116904D01*
X101400952Y-113926428D01*
X101400952Y-113688333D01*
X101448571Y-113497857D01*
X101496190Y-113402619D01*
X101543809Y-113355000D01*
X101639047Y-113307380D01*
X102353333Y-113402619D02*
X102400952Y-113355000D01*
X102496190Y-113307380D01*
X102734285Y-113307380D01*
X102829523Y-113355000D01*
X102877142Y-113402619D01*
X102924761Y-113497857D01*
X102924761Y-113593095D01*
X102877142Y-113735952D01*
X102305714Y-114307380D01*
X102924761Y-114307380D01*
X103305714Y-113402619D02*
X103353333Y-113355000D01*
X103448571Y-113307380D01*
X103686666Y-113307380D01*
X103781904Y-113355000D01*
X103829523Y-113402619D01*
X103877142Y-113497857D01*
X103877142Y-113593095D01*
X103829523Y-113735952D01*
X103258095Y-114307380D01*
X103877142Y-114307380D01*
D11*
%TO.C,J1*%
X95850000Y-104470000D02*
G75*
G03*
X95850000Y-104470000I-100000J0D01*
G01*
D12*
X107500000Y-99020000D02*
X106050000Y-99020000D01*
X107500000Y-106720000D02*
X107500000Y-99020000D01*
X106100000Y-106720000D02*
X107500000Y-106720000D01*
X100550000Y-106720000D02*
X103100000Y-106720000D01*
X100600000Y-99020000D02*
X103050000Y-99020000D01*
X96150000Y-99020000D02*
X97600000Y-99020000D01*
X96150000Y-106720000D02*
X96150000Y-99020000D01*
X97600000Y-106720000D02*
X96150000Y-106720000D01*
D13*
%TO.C,J2*%
X86965003Y-97119752D02*
G75*
G03*
X86965003Y-97119752I-125001J0D01*
G01*
D10*
X81789745Y-110549484D02*
X81789745Y-111169750D01*
X81789745Y-111169750D02*
X82040001Y-111169750D01*
X81789745Y-94569001D02*
X82040001Y-94569001D01*
X81789745Y-94569001D02*
X81789745Y-95189251D01*
X80190210Y-95189251D02*
X81789745Y-95189251D01*
X80190210Y-93569930D02*
X80190210Y-95189251D01*
X80190053Y-93569772D02*
X80190210Y-93569930D01*
X79189984Y-93569772D02*
X80190053Y-93569772D01*
X79189984Y-93569772D02*
X79189984Y-112169730D01*
X79189984Y-112169730D02*
X80189984Y-112169730D01*
X80190002Y-112169712D02*
X80189984Y-112169730D01*
X80190002Y-110549487D02*
X80190002Y-112169712D01*
X80190002Y-110549487D02*
X81789742Y-110549487D01*
%TO.C,J1*%
D14*
X94633854Y-105054240D02*
X95091606Y-105054240D01*
X95183157Y-105084757D01*
X95244190Y-105145791D01*
X95274707Y-105237341D01*
X95274707Y-105298375D01*
X95274707Y-104413387D02*
X95274707Y-104779589D01*
X95274707Y-104596488D02*
X94633854Y-104596488D01*
X94725405Y-104657522D01*
X94786438Y-104718555D01*
X94816955Y-104779589D01*
%TO.C,J2*%
D10*
X86917383Y-93657731D02*
X87631669Y-93657731D01*
X87774526Y-93705350D01*
X87869764Y-93800588D01*
X87917383Y-93943445D01*
X87917383Y-94038683D01*
X87012622Y-93229159D02*
X86965003Y-93181540D01*
X86917383Y-93086302D01*
X86917383Y-92848207D01*
X86965003Y-92752969D01*
X87012622Y-92705350D01*
X87107860Y-92657731D01*
X87203098Y-92657731D01*
X87345955Y-92705350D01*
X87917383Y-93276778D01*
X87917383Y-92657731D01*
X83910714Y-104140000D02*
X83910714Y-103172380D01*
X83910714Y-102567619D02*
X83910714Y-101600000D01*
%TD*%
M02*
