%TF.GenerationSoftware,KiCad,Pcbnew,(5.1.12)-1*%
%TF.CreationDate,2022-05-16T16:27:55-04:00*%
%TF.ProjectId,flex_interface_x4,666c6578-5f69-46e7-9465-72666163655f,rev?*%
%TF.SameCoordinates,Original*%
%TF.FileFunction,Copper,L1,Top*%
%TF.FilePolarity,Positive*%
%FSLAX46Y46*%
G04 Gerber Fmt 4.6, Leading zero omitted, Abs format (unit mm)*
G04 Created by KiCad (PCBNEW (5.1.12)-1) date 2022-05-16 16:27:55*
%MOMM*%
%LPD*%
G01*
G04 APERTURE LIST*
%TA.AperFunction,EtchedComponent*%
%ADD10C,0.100000*%
%TD*%
%TA.AperFunction,SMDPad,CuDef*%
%ADD11R,2.500000X2.000000*%
%TD*%
%TA.AperFunction,SMDPad,CuDef*%
%ADD12R,2.300000X0.500000*%
%TD*%
%TA.AperFunction,SMDPad,CuDef*%
%ADD13R,0.800001X0.299999*%
%TD*%
%TA.AperFunction,SMDPad,CuDef*%
%ADD14R,1.000001X1.000001*%
%TD*%
%TA.AperFunction,Conductor*%
%ADD15C,0.250000*%
%TD*%
%TA.AperFunction,Conductor*%
%ADD16C,0.254000*%
%TD*%
%TA.AperFunction,Conductor*%
%ADD17C,0.100000*%
%TD*%
G04 APERTURE END LIST*
D10*
%TO.C,J2*%
G36*
X85490002Y-109869747D02*
G01*
X85490002Y-112269748D01*
X83290001Y-112269748D01*
X83290001Y-111169747D01*
X82440003Y-111169747D01*
X82440003Y-109869747D01*
X85490002Y-109869747D01*
G37*
G36*
X85490002Y-95869755D02*
G01*
X85490002Y-93469755D01*
X83290001Y-93469755D01*
X83290001Y-94569755D01*
X82440003Y-94569755D01*
X82440003Y-95869755D01*
X85490002Y-95869755D01*
G37*
%TD*%
D11*
%TO.P,J1,S1*%
%TO.N,Net-(J1-PadS1)*%
X99100000Y-107320000D03*
%TO.P,J1,S2*%
X99100000Y-98420000D03*
%TO.P,J1,S3*%
X104600000Y-107320000D03*
%TO.P,J1,S4*%
X104600000Y-98420000D03*
D12*
%TO.P,J1,1*%
%TO.N,Net-(J1-Pad1)*%
X99000000Y-104470000D03*
%TO.P,J1,2*%
%TO.N,Net-(J1-Pad2)*%
X99000000Y-103670000D03*
%TO.P,J1,3*%
%TO.N,Net-(J1-Pad3)*%
X99000000Y-102870000D03*
%TO.P,J1,4*%
%TO.N,Net-(J1-Pad4)*%
X99000000Y-102070000D03*
%TO.P,J1,5*%
%TO.N,Net-(J1-Pad5)*%
X99000000Y-101270000D03*
%TD*%
D13*
%TO.P,J2,22*%
%TO.N,Net-(J2-Pad22)*%
X85890001Y-107619752D03*
%TO.P,J2,1*%
%TO.N,Net-(J1-Pad5)*%
X85890001Y-97119752D03*
%TO.P,J2,2*%
%TO.N,Net-(J1-Pad4)*%
X85890001Y-97619751D03*
%TO.P,J2,3*%
%TO.N,Net-(J1-Pad3)*%
X85890001Y-98119753D03*
%TO.P,J2,4*%
%TO.N,Net-(J1-Pad2)*%
X85890001Y-98619752D03*
%TO.P,J2,5*%
%TO.N,Net-(J1-Pad1)*%
X85890001Y-99119753D03*
%TO.P,J2,6*%
%TO.N,Net-(J2-Pad6)*%
X85890001Y-99619752D03*
%TO.P,J2,7*%
%TO.N,Net-(J2-Pad7)*%
X85890001Y-100119751D03*
%TO.P,J2,8*%
%TO.N,Net-(J2-Pad8)*%
X85890001Y-100619753D03*
%TO.P,J2,9*%
%TO.N,Net-(J2-Pad9)*%
X85890001Y-101119752D03*
%TO.P,J2,10*%
%TO.N,Net-(J2-Pad10)*%
X85890001Y-101619754D03*
%TO.P,J2,11*%
%TO.N,Net-(J2-Pad11)*%
X85890001Y-102119753D03*
%TO.P,J2,12*%
%TO.N,Net-(J2-Pad12)*%
X85890001Y-102619752D03*
%TO.P,J2,13*%
%TO.N,Net-(J2-Pad13)*%
X85890001Y-103119753D03*
%TO.P,J2,14*%
%TO.N,Net-(J2-Pad14)*%
X85890001Y-103619752D03*
%TO.P,J2,15*%
%TO.N,Net-(J2-Pad15)*%
X85890001Y-104119754D03*
%TO.P,J2,16*%
%TO.N,Net-(J2-Pad16)*%
X85890001Y-104619753D03*
%TO.P,J2,17*%
%TO.N,Net-(J2-Pad17)*%
X85890001Y-105119752D03*
%TO.P,J2,18*%
%TO.N,Net-(J2-Pad18)*%
X85890001Y-105619753D03*
%TO.P,J2,19*%
%TO.N,Net-(J2-Pad19)*%
X85890001Y-106119752D03*
%TO.P,J2,20*%
%TO.N,Net-(J2-Pad20)*%
X85890001Y-106619754D03*
%TO.P,J2,21*%
%TO.N,Net-(J2-Pad21)*%
X85890001Y-107119753D03*
D14*
%TO.P,J2,MP1*%
%TO.N,Net-(J1-PadS1)*%
X84290002Y-94620250D03*
%TO.P,J2,MP2*%
X84290002Y-111119750D03*
D13*
%TO.P,J2,23*%
%TO.N,Net-(J2-Pad23)*%
X85890001Y-108119753D03*
%TO.P,J2,24*%
%TO.N,Net-(J2-Pad24)*%
X85890001Y-108619752D03*
%TD*%
D15*
%TO.N,Net-(J1-Pad5)*%
X86589990Y-97169741D02*
X88414367Y-97169742D01*
X86540001Y-97119752D02*
X86589990Y-97169741D01*
X85890001Y-97119752D02*
X86540001Y-97119752D01*
X92514625Y-101270000D02*
X99000000Y-101270000D01*
X88414367Y-97169742D02*
X92514625Y-101270000D01*
%TO.N,Net-(J1-Pad4)*%
X85890001Y-97619751D02*
X88227966Y-97619751D01*
X92678215Y-102070000D02*
X99000000Y-102070000D01*
X88227966Y-97619751D02*
X92678215Y-102070000D01*
%TO.N,Net-(J1-Pad3)*%
X85890001Y-98119753D02*
X87959753Y-98119753D01*
X87959753Y-98119753D02*
X92710000Y-102870000D01*
X96520000Y-102870000D02*
X99000000Y-102870000D01*
X92710000Y-102870000D02*
X96520000Y-102870000D01*
%TO.N,Net-(J1-Pad2)*%
X85890001Y-98619752D02*
X87309762Y-98619752D01*
X92360010Y-103670000D02*
X99000000Y-103670000D01*
X87309762Y-98619752D02*
X92360010Y-103670000D01*
%TO.N,Net-(J1-Pad1)*%
X91890248Y-104470000D02*
X99000000Y-104470000D01*
X86540001Y-99119753D02*
X91890248Y-104470000D01*
X85890001Y-99119753D02*
X86540001Y-99119753D01*
%TO.N,Net-(J1-PadS1)*%
X95300250Y-94620250D02*
X99100000Y-98420000D01*
X84290002Y-94620250D02*
X95300250Y-94620250D01*
X84290002Y-94620250D02*
X84290002Y-93509998D01*
X84290002Y-93509998D02*
X85090000Y-92710000D01*
X98890000Y-92710000D02*
X104600000Y-98420000D01*
X85090000Y-92710000D02*
X98890000Y-92710000D01*
X84290002Y-111119750D02*
X97160250Y-111119750D01*
X99100000Y-109180000D02*
X99100000Y-107320000D01*
X97160250Y-111119750D02*
X99100000Y-109180000D01*
%TD*%
D16*
%TO.N,Net-(J1-PadS1)*%
X105283000Y-96783734D02*
X104885750Y-96785000D01*
X104727000Y-96943750D01*
X104727000Y-98293000D01*
X104747000Y-98293000D01*
X104747000Y-98547000D01*
X104727000Y-98547000D01*
X104727000Y-99896250D01*
X104885750Y-100055000D01*
X105283000Y-100056266D01*
X105283000Y-105683734D01*
X104885750Y-105685000D01*
X104727000Y-105843750D01*
X104727000Y-107193000D01*
X104747000Y-107193000D01*
X104747000Y-107447000D01*
X104727000Y-107447000D01*
X104727000Y-108796250D01*
X104885750Y-108955000D01*
X105283000Y-108956266D01*
X105283000Y-114173000D01*
X82677000Y-114173000D01*
X82677000Y-112425896D01*
X82684389Y-112450369D01*
X82701239Y-112507623D01*
X82702270Y-112509595D01*
X82702914Y-112511728D01*
X82730989Y-112564529D01*
X82758656Y-112617451D01*
X82760050Y-112619185D01*
X82761096Y-112621152D01*
X82798884Y-112667485D01*
X82836311Y-112714034D01*
X82838016Y-112715465D01*
X82839424Y-112717191D01*
X82885474Y-112755287D01*
X82931247Y-112793695D01*
X82933199Y-112794768D01*
X82934914Y-112796187D01*
X82987462Y-112824599D01*
X83039848Y-112853399D01*
X83041972Y-112854073D01*
X83043929Y-112855131D01*
X83100951Y-112872782D01*
X83157977Y-112890872D01*
X83160193Y-112891121D01*
X83162317Y-112891778D01*
X83221744Y-112898024D01*
X83281135Y-112904686D01*
X83285405Y-112904716D01*
X83285568Y-112904733D01*
X83285731Y-112904718D01*
X83290001Y-112904748D01*
X85490002Y-112904748D01*
X85549507Y-112898914D01*
X85608989Y-112893500D01*
X85611120Y-112892873D01*
X85613341Y-112892655D01*
X85670623Y-112875360D01*
X85727877Y-112858510D01*
X85729849Y-112857479D01*
X85731982Y-112856835D01*
X85784783Y-112828760D01*
X85837705Y-112801093D01*
X85839439Y-112799699D01*
X85841406Y-112798653D01*
X85887739Y-112760865D01*
X85934288Y-112723438D01*
X85935719Y-112721733D01*
X85937445Y-112720325D01*
X85975541Y-112674275D01*
X86013949Y-112628502D01*
X86015022Y-112626550D01*
X86016441Y-112624835D01*
X86044853Y-112572287D01*
X86073653Y-112519901D01*
X86074327Y-112517777D01*
X86075385Y-112515820D01*
X86093036Y-112458798D01*
X86111126Y-112401772D01*
X86111375Y-112399556D01*
X86112032Y-112397432D01*
X86118278Y-112338005D01*
X86124940Y-112278614D01*
X86124970Y-112274344D01*
X86124987Y-112274181D01*
X86124972Y-112274018D01*
X86125002Y-112269748D01*
X86125002Y-109869747D01*
X86119168Y-109810242D01*
X86113754Y-109750760D01*
X86113127Y-109748629D01*
X86112909Y-109746408D01*
X86095614Y-109689126D01*
X86078764Y-109631872D01*
X86077733Y-109629900D01*
X86077089Y-109627767D01*
X86049014Y-109574966D01*
X86021347Y-109522044D01*
X86019953Y-109520310D01*
X86018907Y-109518343D01*
X85981119Y-109472010D01*
X85943692Y-109425461D01*
X85941987Y-109424030D01*
X85940579Y-109422304D01*
X85923074Y-109407823D01*
X86290001Y-109407823D01*
X86414483Y-109395563D01*
X86534181Y-109359253D01*
X86644495Y-109300288D01*
X86741186Y-109220936D01*
X86820538Y-109124245D01*
X86879503Y-109013931D01*
X86915813Y-108894233D01*
X86928073Y-108769751D01*
X86928073Y-108469753D01*
X86918224Y-108369753D01*
X86923124Y-108320000D01*
X97211928Y-108320000D01*
X97224188Y-108444482D01*
X97260498Y-108564180D01*
X97319463Y-108674494D01*
X97398815Y-108771185D01*
X97495506Y-108850537D01*
X97605820Y-108909502D01*
X97725518Y-108945812D01*
X97850000Y-108958072D01*
X98814250Y-108955000D01*
X98973000Y-108796250D01*
X98973000Y-107447000D01*
X99227000Y-107447000D01*
X99227000Y-108796250D01*
X99385750Y-108955000D01*
X100350000Y-108958072D01*
X100474482Y-108945812D01*
X100594180Y-108909502D01*
X100704494Y-108850537D01*
X100801185Y-108771185D01*
X100880537Y-108674494D01*
X100939502Y-108564180D01*
X100975812Y-108444482D01*
X100988072Y-108320000D01*
X102711928Y-108320000D01*
X102724188Y-108444482D01*
X102760498Y-108564180D01*
X102819463Y-108674494D01*
X102898815Y-108771185D01*
X102995506Y-108850537D01*
X103105820Y-108909502D01*
X103225518Y-108945812D01*
X103350000Y-108958072D01*
X104314250Y-108955000D01*
X104473000Y-108796250D01*
X104473000Y-107447000D01*
X102873750Y-107447000D01*
X102715000Y-107605750D01*
X102711928Y-108320000D01*
X100988072Y-108320000D01*
X100985000Y-107605750D01*
X100826250Y-107447000D01*
X99227000Y-107447000D01*
X98973000Y-107447000D01*
X97373750Y-107447000D01*
X97215000Y-107605750D01*
X97211928Y-108320000D01*
X86923124Y-108320000D01*
X86928073Y-108269752D01*
X86928073Y-107969754D01*
X86918224Y-107869753D01*
X86928073Y-107769751D01*
X86928073Y-107469753D01*
X86918224Y-107369752D01*
X86928073Y-107269752D01*
X86928073Y-106969754D01*
X86918224Y-106869753D01*
X86928073Y-106769753D01*
X86928073Y-106469755D01*
X86918224Y-106369753D01*
X86928073Y-106269751D01*
X86928073Y-105969753D01*
X86918224Y-105869752D01*
X86928073Y-105769752D01*
X86928073Y-105469754D01*
X86918224Y-105369753D01*
X86928073Y-105269751D01*
X86928073Y-104969753D01*
X86918224Y-104869753D01*
X86928073Y-104769752D01*
X86928073Y-104469754D01*
X86918224Y-104369754D01*
X86928073Y-104269753D01*
X86928073Y-103969755D01*
X86918224Y-103869753D01*
X86928073Y-103769751D01*
X86928073Y-103469753D01*
X86918224Y-103369753D01*
X86928073Y-103269752D01*
X86928073Y-102969754D01*
X86918224Y-102869753D01*
X86928073Y-102769751D01*
X86928073Y-102469753D01*
X86918224Y-102369752D01*
X86928073Y-102269752D01*
X86928073Y-101969754D01*
X86918224Y-101869753D01*
X86928073Y-101769753D01*
X86928073Y-101469755D01*
X86918224Y-101369753D01*
X86928073Y-101269751D01*
X86928073Y-101077679D01*
X92620197Y-106769803D01*
X92639443Y-106785597D01*
X92661399Y-106797333D01*
X92685224Y-106804560D01*
X92710000Y-106807000D01*
X97214023Y-106807000D01*
X97215000Y-107034250D01*
X97373750Y-107193000D01*
X98973000Y-107193000D01*
X98973000Y-107173000D01*
X99227000Y-107173000D01*
X99227000Y-107193000D01*
X100826250Y-107193000D01*
X100985000Y-107034250D01*
X100985977Y-106807000D01*
X101600000Y-106807000D01*
X101624776Y-106804560D01*
X101648601Y-106797333D01*
X101670557Y-106785597D01*
X101689803Y-106769803D01*
X101705597Y-106750557D01*
X101717333Y-106728601D01*
X101724560Y-106704776D01*
X101727000Y-106680000D01*
X101727000Y-106320000D01*
X102711928Y-106320000D01*
X102715000Y-107034250D01*
X102873750Y-107193000D01*
X104473000Y-107193000D01*
X104473000Y-105843750D01*
X104314250Y-105685000D01*
X103350000Y-105681928D01*
X103225518Y-105694188D01*
X103105820Y-105730498D01*
X102995506Y-105789463D01*
X102898815Y-105868815D01*
X102819463Y-105965506D01*
X102760498Y-106075820D01*
X102724188Y-106195518D01*
X102711928Y-106320000D01*
X101727000Y-106320000D01*
X101727000Y-106150995D01*
X101916483Y-106113304D01*
X102113940Y-106031515D01*
X102291647Y-105912775D01*
X102442775Y-105761647D01*
X102561515Y-105583940D01*
X102643304Y-105386483D01*
X102685000Y-105176863D01*
X102685000Y-104963137D01*
X102643304Y-104753517D01*
X102561515Y-104556060D01*
X102442775Y-104378353D01*
X102291647Y-104227225D01*
X102113940Y-104108485D01*
X101916483Y-104026696D01*
X101727000Y-103989005D01*
X101727000Y-101750995D01*
X101916483Y-101713304D01*
X102113940Y-101631515D01*
X102291647Y-101512775D01*
X102442775Y-101361647D01*
X102561515Y-101183940D01*
X102643304Y-100986483D01*
X102685000Y-100776863D01*
X102685000Y-100563137D01*
X102643304Y-100353517D01*
X102561515Y-100156060D01*
X102442775Y-99978353D01*
X102291647Y-99827225D01*
X102113940Y-99708485D01*
X101916483Y-99626696D01*
X101706863Y-99585000D01*
X101493137Y-99585000D01*
X101283517Y-99626696D01*
X101086060Y-99708485D01*
X100908353Y-99827225D01*
X100757225Y-99978353D01*
X100638485Y-100156060D01*
X100619042Y-100203000D01*
X92762606Y-100203000D01*
X91979606Y-99420000D01*
X97211928Y-99420000D01*
X97224188Y-99544482D01*
X97260498Y-99664180D01*
X97319463Y-99774494D01*
X97398815Y-99871185D01*
X97495506Y-99950537D01*
X97605820Y-100009502D01*
X97725518Y-100045812D01*
X97850000Y-100058072D01*
X98814250Y-100055000D01*
X98973000Y-99896250D01*
X98973000Y-98547000D01*
X99227000Y-98547000D01*
X99227000Y-99896250D01*
X99385750Y-100055000D01*
X100350000Y-100058072D01*
X100474482Y-100045812D01*
X100594180Y-100009502D01*
X100704494Y-99950537D01*
X100801185Y-99871185D01*
X100880537Y-99774494D01*
X100939502Y-99664180D01*
X100975812Y-99544482D01*
X100988072Y-99420000D01*
X102711928Y-99420000D01*
X102724188Y-99544482D01*
X102760498Y-99664180D01*
X102819463Y-99774494D01*
X102898815Y-99871185D01*
X102995506Y-99950537D01*
X103105820Y-100009502D01*
X103225518Y-100045812D01*
X103350000Y-100058072D01*
X104314250Y-100055000D01*
X104473000Y-99896250D01*
X104473000Y-98547000D01*
X102873750Y-98547000D01*
X102715000Y-98705750D01*
X102711928Y-99420000D01*
X100988072Y-99420000D01*
X100985000Y-98705750D01*
X100826250Y-98547000D01*
X99227000Y-98547000D01*
X98973000Y-98547000D01*
X97373750Y-98547000D01*
X97215000Y-98705750D01*
X97211928Y-99420000D01*
X91979606Y-99420000D01*
X89979606Y-97420000D01*
X97211928Y-97420000D01*
X97215000Y-98134250D01*
X97373750Y-98293000D01*
X98973000Y-98293000D01*
X98973000Y-96943750D01*
X99227000Y-96943750D01*
X99227000Y-98293000D01*
X100826250Y-98293000D01*
X100985000Y-98134250D01*
X100988072Y-97420000D01*
X102711928Y-97420000D01*
X102715000Y-98134250D01*
X102873750Y-98293000D01*
X104473000Y-98293000D01*
X104473000Y-96943750D01*
X104314250Y-96785000D01*
X103350000Y-96781928D01*
X103225518Y-96794188D01*
X103105820Y-96830498D01*
X102995506Y-96889463D01*
X102898815Y-96968815D01*
X102819463Y-97065506D01*
X102760498Y-97175820D01*
X102724188Y-97295518D01*
X102711928Y-97420000D01*
X100988072Y-97420000D01*
X100975812Y-97295518D01*
X100939502Y-97175820D01*
X100880537Y-97065506D01*
X100801185Y-96968815D01*
X100704494Y-96889463D01*
X100594180Y-96830498D01*
X100474482Y-96794188D01*
X100350000Y-96781928D01*
X99385750Y-96785000D01*
X99227000Y-96943750D01*
X98973000Y-96943750D01*
X98814250Y-96785000D01*
X97850000Y-96781928D01*
X97725518Y-96794188D01*
X97605820Y-96830498D01*
X97495506Y-96889463D01*
X97398815Y-96968815D01*
X97319463Y-97065506D01*
X97260498Y-97175820D01*
X97224188Y-97295518D01*
X97211928Y-97420000D01*
X89979606Y-97420000D01*
X88989803Y-96430197D01*
X88970557Y-96414403D01*
X88948601Y-96402667D01*
X88924776Y-96395440D01*
X88900000Y-96393000D01*
X86762341Y-96393000D01*
X86688987Y-96370749D01*
X86577334Y-96359752D01*
X86577323Y-96359752D01*
X86540001Y-96356076D01*
X86502679Y-96359752D01*
X86466605Y-96359752D01*
X86414483Y-96343941D01*
X86290001Y-96331681D01*
X85924045Y-96331681D01*
X85934288Y-96323445D01*
X85935719Y-96321740D01*
X85937445Y-96320332D01*
X85975541Y-96274282D01*
X86013949Y-96228509D01*
X86015022Y-96226557D01*
X86016441Y-96224842D01*
X86044853Y-96172294D01*
X86073653Y-96119908D01*
X86074327Y-96117784D01*
X86075385Y-96115827D01*
X86093036Y-96058805D01*
X86111126Y-96001779D01*
X86111375Y-95999563D01*
X86112032Y-95997439D01*
X86118278Y-95938012D01*
X86124940Y-95878621D01*
X86124970Y-95874351D01*
X86124987Y-95874188D01*
X86124972Y-95874025D01*
X86125002Y-95869755D01*
X86125002Y-93469755D01*
X86119168Y-93410250D01*
X86113754Y-93350768D01*
X86113127Y-93348637D01*
X86112909Y-93346416D01*
X86095614Y-93289134D01*
X86078764Y-93231880D01*
X86077733Y-93229908D01*
X86077089Y-93227775D01*
X86049014Y-93174974D01*
X86021347Y-93122052D01*
X86019953Y-93120318D01*
X86018907Y-93118351D01*
X85981119Y-93072018D01*
X85943692Y-93025469D01*
X85941987Y-93024038D01*
X85940579Y-93022312D01*
X85894529Y-92984216D01*
X85848756Y-92945808D01*
X85846804Y-92944735D01*
X85845089Y-92943316D01*
X85792541Y-92914904D01*
X85740155Y-92886104D01*
X85738031Y-92885430D01*
X85736074Y-92884372D01*
X85679052Y-92866721D01*
X85622026Y-92848631D01*
X85619810Y-92848382D01*
X85617686Y-92847725D01*
X85558259Y-92841479D01*
X85498868Y-92834817D01*
X85494598Y-92834787D01*
X85494435Y-92834770D01*
X85494272Y-92834785D01*
X85490002Y-92834755D01*
X83290001Y-92834755D01*
X83230496Y-92840589D01*
X83171014Y-92846003D01*
X83168883Y-92846630D01*
X83166662Y-92846848D01*
X83109380Y-92864143D01*
X83052126Y-92880993D01*
X83050154Y-92882024D01*
X83048021Y-92882668D01*
X82995220Y-92910743D01*
X82942298Y-92938410D01*
X82940564Y-92939804D01*
X82938597Y-92940850D01*
X82892264Y-92978638D01*
X82845715Y-93016065D01*
X82844284Y-93017770D01*
X82842558Y-93019178D01*
X82804462Y-93065228D01*
X82766054Y-93111001D01*
X82764981Y-93112953D01*
X82763562Y-93114668D01*
X82735150Y-93167216D01*
X82706350Y-93219602D01*
X82705676Y-93221726D01*
X82704618Y-93223683D01*
X82686967Y-93280705D01*
X82677000Y-93312124D01*
X82677000Y-91567000D01*
X105283000Y-91567000D01*
X105283000Y-96783734D01*
%TA.AperFunction,Conductor*%
D17*
G36*
X105283000Y-96783734D02*
G01*
X104885750Y-96785000D01*
X104727000Y-96943750D01*
X104727000Y-98293000D01*
X104747000Y-98293000D01*
X104747000Y-98547000D01*
X104727000Y-98547000D01*
X104727000Y-99896250D01*
X104885750Y-100055000D01*
X105283000Y-100056266D01*
X105283000Y-105683734D01*
X104885750Y-105685000D01*
X104727000Y-105843750D01*
X104727000Y-107193000D01*
X104747000Y-107193000D01*
X104747000Y-107447000D01*
X104727000Y-107447000D01*
X104727000Y-108796250D01*
X104885750Y-108955000D01*
X105283000Y-108956266D01*
X105283000Y-114173000D01*
X82677000Y-114173000D01*
X82677000Y-112425896D01*
X82684389Y-112450369D01*
X82701239Y-112507623D01*
X82702270Y-112509595D01*
X82702914Y-112511728D01*
X82730989Y-112564529D01*
X82758656Y-112617451D01*
X82760050Y-112619185D01*
X82761096Y-112621152D01*
X82798884Y-112667485D01*
X82836311Y-112714034D01*
X82838016Y-112715465D01*
X82839424Y-112717191D01*
X82885474Y-112755287D01*
X82931247Y-112793695D01*
X82933199Y-112794768D01*
X82934914Y-112796187D01*
X82987462Y-112824599D01*
X83039848Y-112853399D01*
X83041972Y-112854073D01*
X83043929Y-112855131D01*
X83100951Y-112872782D01*
X83157977Y-112890872D01*
X83160193Y-112891121D01*
X83162317Y-112891778D01*
X83221744Y-112898024D01*
X83281135Y-112904686D01*
X83285405Y-112904716D01*
X83285568Y-112904733D01*
X83285731Y-112904718D01*
X83290001Y-112904748D01*
X85490002Y-112904748D01*
X85549507Y-112898914D01*
X85608989Y-112893500D01*
X85611120Y-112892873D01*
X85613341Y-112892655D01*
X85670623Y-112875360D01*
X85727877Y-112858510D01*
X85729849Y-112857479D01*
X85731982Y-112856835D01*
X85784783Y-112828760D01*
X85837705Y-112801093D01*
X85839439Y-112799699D01*
X85841406Y-112798653D01*
X85887739Y-112760865D01*
X85934288Y-112723438D01*
X85935719Y-112721733D01*
X85937445Y-112720325D01*
X85975541Y-112674275D01*
X86013949Y-112628502D01*
X86015022Y-112626550D01*
X86016441Y-112624835D01*
X86044853Y-112572287D01*
X86073653Y-112519901D01*
X86074327Y-112517777D01*
X86075385Y-112515820D01*
X86093036Y-112458798D01*
X86111126Y-112401772D01*
X86111375Y-112399556D01*
X86112032Y-112397432D01*
X86118278Y-112338005D01*
X86124940Y-112278614D01*
X86124970Y-112274344D01*
X86124987Y-112274181D01*
X86124972Y-112274018D01*
X86125002Y-112269748D01*
X86125002Y-109869747D01*
X86119168Y-109810242D01*
X86113754Y-109750760D01*
X86113127Y-109748629D01*
X86112909Y-109746408D01*
X86095614Y-109689126D01*
X86078764Y-109631872D01*
X86077733Y-109629900D01*
X86077089Y-109627767D01*
X86049014Y-109574966D01*
X86021347Y-109522044D01*
X86019953Y-109520310D01*
X86018907Y-109518343D01*
X85981119Y-109472010D01*
X85943692Y-109425461D01*
X85941987Y-109424030D01*
X85940579Y-109422304D01*
X85923074Y-109407823D01*
X86290001Y-109407823D01*
X86414483Y-109395563D01*
X86534181Y-109359253D01*
X86644495Y-109300288D01*
X86741186Y-109220936D01*
X86820538Y-109124245D01*
X86879503Y-109013931D01*
X86915813Y-108894233D01*
X86928073Y-108769751D01*
X86928073Y-108469753D01*
X86918224Y-108369753D01*
X86923124Y-108320000D01*
X97211928Y-108320000D01*
X97224188Y-108444482D01*
X97260498Y-108564180D01*
X97319463Y-108674494D01*
X97398815Y-108771185D01*
X97495506Y-108850537D01*
X97605820Y-108909502D01*
X97725518Y-108945812D01*
X97850000Y-108958072D01*
X98814250Y-108955000D01*
X98973000Y-108796250D01*
X98973000Y-107447000D01*
X99227000Y-107447000D01*
X99227000Y-108796250D01*
X99385750Y-108955000D01*
X100350000Y-108958072D01*
X100474482Y-108945812D01*
X100594180Y-108909502D01*
X100704494Y-108850537D01*
X100801185Y-108771185D01*
X100880537Y-108674494D01*
X100939502Y-108564180D01*
X100975812Y-108444482D01*
X100988072Y-108320000D01*
X102711928Y-108320000D01*
X102724188Y-108444482D01*
X102760498Y-108564180D01*
X102819463Y-108674494D01*
X102898815Y-108771185D01*
X102995506Y-108850537D01*
X103105820Y-108909502D01*
X103225518Y-108945812D01*
X103350000Y-108958072D01*
X104314250Y-108955000D01*
X104473000Y-108796250D01*
X104473000Y-107447000D01*
X102873750Y-107447000D01*
X102715000Y-107605750D01*
X102711928Y-108320000D01*
X100988072Y-108320000D01*
X100985000Y-107605750D01*
X100826250Y-107447000D01*
X99227000Y-107447000D01*
X98973000Y-107447000D01*
X97373750Y-107447000D01*
X97215000Y-107605750D01*
X97211928Y-108320000D01*
X86923124Y-108320000D01*
X86928073Y-108269752D01*
X86928073Y-107969754D01*
X86918224Y-107869753D01*
X86928073Y-107769751D01*
X86928073Y-107469753D01*
X86918224Y-107369752D01*
X86928073Y-107269752D01*
X86928073Y-106969754D01*
X86918224Y-106869753D01*
X86928073Y-106769753D01*
X86928073Y-106469755D01*
X86918224Y-106369753D01*
X86928073Y-106269751D01*
X86928073Y-105969753D01*
X86918224Y-105869752D01*
X86928073Y-105769752D01*
X86928073Y-105469754D01*
X86918224Y-105369753D01*
X86928073Y-105269751D01*
X86928073Y-104969753D01*
X86918224Y-104869753D01*
X86928073Y-104769752D01*
X86928073Y-104469754D01*
X86918224Y-104369754D01*
X86928073Y-104269753D01*
X86928073Y-103969755D01*
X86918224Y-103869753D01*
X86928073Y-103769751D01*
X86928073Y-103469753D01*
X86918224Y-103369753D01*
X86928073Y-103269752D01*
X86928073Y-102969754D01*
X86918224Y-102869753D01*
X86928073Y-102769751D01*
X86928073Y-102469753D01*
X86918224Y-102369752D01*
X86928073Y-102269752D01*
X86928073Y-101969754D01*
X86918224Y-101869753D01*
X86928073Y-101769753D01*
X86928073Y-101469755D01*
X86918224Y-101369753D01*
X86928073Y-101269751D01*
X86928073Y-101077679D01*
X92620197Y-106769803D01*
X92639443Y-106785597D01*
X92661399Y-106797333D01*
X92685224Y-106804560D01*
X92710000Y-106807000D01*
X97214023Y-106807000D01*
X97215000Y-107034250D01*
X97373750Y-107193000D01*
X98973000Y-107193000D01*
X98973000Y-107173000D01*
X99227000Y-107173000D01*
X99227000Y-107193000D01*
X100826250Y-107193000D01*
X100985000Y-107034250D01*
X100985977Y-106807000D01*
X101600000Y-106807000D01*
X101624776Y-106804560D01*
X101648601Y-106797333D01*
X101670557Y-106785597D01*
X101689803Y-106769803D01*
X101705597Y-106750557D01*
X101717333Y-106728601D01*
X101724560Y-106704776D01*
X101727000Y-106680000D01*
X101727000Y-106320000D01*
X102711928Y-106320000D01*
X102715000Y-107034250D01*
X102873750Y-107193000D01*
X104473000Y-107193000D01*
X104473000Y-105843750D01*
X104314250Y-105685000D01*
X103350000Y-105681928D01*
X103225518Y-105694188D01*
X103105820Y-105730498D01*
X102995506Y-105789463D01*
X102898815Y-105868815D01*
X102819463Y-105965506D01*
X102760498Y-106075820D01*
X102724188Y-106195518D01*
X102711928Y-106320000D01*
X101727000Y-106320000D01*
X101727000Y-106150995D01*
X101916483Y-106113304D01*
X102113940Y-106031515D01*
X102291647Y-105912775D01*
X102442775Y-105761647D01*
X102561515Y-105583940D01*
X102643304Y-105386483D01*
X102685000Y-105176863D01*
X102685000Y-104963137D01*
X102643304Y-104753517D01*
X102561515Y-104556060D01*
X102442775Y-104378353D01*
X102291647Y-104227225D01*
X102113940Y-104108485D01*
X101916483Y-104026696D01*
X101727000Y-103989005D01*
X101727000Y-101750995D01*
X101916483Y-101713304D01*
X102113940Y-101631515D01*
X102291647Y-101512775D01*
X102442775Y-101361647D01*
X102561515Y-101183940D01*
X102643304Y-100986483D01*
X102685000Y-100776863D01*
X102685000Y-100563137D01*
X102643304Y-100353517D01*
X102561515Y-100156060D01*
X102442775Y-99978353D01*
X102291647Y-99827225D01*
X102113940Y-99708485D01*
X101916483Y-99626696D01*
X101706863Y-99585000D01*
X101493137Y-99585000D01*
X101283517Y-99626696D01*
X101086060Y-99708485D01*
X100908353Y-99827225D01*
X100757225Y-99978353D01*
X100638485Y-100156060D01*
X100619042Y-100203000D01*
X92762606Y-100203000D01*
X91979606Y-99420000D01*
X97211928Y-99420000D01*
X97224188Y-99544482D01*
X97260498Y-99664180D01*
X97319463Y-99774494D01*
X97398815Y-99871185D01*
X97495506Y-99950537D01*
X97605820Y-100009502D01*
X97725518Y-100045812D01*
X97850000Y-100058072D01*
X98814250Y-100055000D01*
X98973000Y-99896250D01*
X98973000Y-98547000D01*
X99227000Y-98547000D01*
X99227000Y-99896250D01*
X99385750Y-100055000D01*
X100350000Y-100058072D01*
X100474482Y-100045812D01*
X100594180Y-100009502D01*
X100704494Y-99950537D01*
X100801185Y-99871185D01*
X100880537Y-99774494D01*
X100939502Y-99664180D01*
X100975812Y-99544482D01*
X100988072Y-99420000D01*
X102711928Y-99420000D01*
X102724188Y-99544482D01*
X102760498Y-99664180D01*
X102819463Y-99774494D01*
X102898815Y-99871185D01*
X102995506Y-99950537D01*
X103105820Y-100009502D01*
X103225518Y-100045812D01*
X103350000Y-100058072D01*
X104314250Y-100055000D01*
X104473000Y-99896250D01*
X104473000Y-98547000D01*
X102873750Y-98547000D01*
X102715000Y-98705750D01*
X102711928Y-99420000D01*
X100988072Y-99420000D01*
X100985000Y-98705750D01*
X100826250Y-98547000D01*
X99227000Y-98547000D01*
X98973000Y-98547000D01*
X97373750Y-98547000D01*
X97215000Y-98705750D01*
X97211928Y-99420000D01*
X91979606Y-99420000D01*
X89979606Y-97420000D01*
X97211928Y-97420000D01*
X97215000Y-98134250D01*
X97373750Y-98293000D01*
X98973000Y-98293000D01*
X98973000Y-96943750D01*
X99227000Y-96943750D01*
X99227000Y-98293000D01*
X100826250Y-98293000D01*
X100985000Y-98134250D01*
X100988072Y-97420000D01*
X102711928Y-97420000D01*
X102715000Y-98134250D01*
X102873750Y-98293000D01*
X104473000Y-98293000D01*
X104473000Y-96943750D01*
X104314250Y-96785000D01*
X103350000Y-96781928D01*
X103225518Y-96794188D01*
X103105820Y-96830498D01*
X102995506Y-96889463D01*
X102898815Y-96968815D01*
X102819463Y-97065506D01*
X102760498Y-97175820D01*
X102724188Y-97295518D01*
X102711928Y-97420000D01*
X100988072Y-97420000D01*
X100975812Y-97295518D01*
X100939502Y-97175820D01*
X100880537Y-97065506D01*
X100801185Y-96968815D01*
X100704494Y-96889463D01*
X100594180Y-96830498D01*
X100474482Y-96794188D01*
X100350000Y-96781928D01*
X99385750Y-96785000D01*
X99227000Y-96943750D01*
X98973000Y-96943750D01*
X98814250Y-96785000D01*
X97850000Y-96781928D01*
X97725518Y-96794188D01*
X97605820Y-96830498D01*
X97495506Y-96889463D01*
X97398815Y-96968815D01*
X97319463Y-97065506D01*
X97260498Y-97175820D01*
X97224188Y-97295518D01*
X97211928Y-97420000D01*
X89979606Y-97420000D01*
X88989803Y-96430197D01*
X88970557Y-96414403D01*
X88948601Y-96402667D01*
X88924776Y-96395440D01*
X88900000Y-96393000D01*
X86762341Y-96393000D01*
X86688987Y-96370749D01*
X86577334Y-96359752D01*
X86577323Y-96359752D01*
X86540001Y-96356076D01*
X86502679Y-96359752D01*
X86466605Y-96359752D01*
X86414483Y-96343941D01*
X86290001Y-96331681D01*
X85924045Y-96331681D01*
X85934288Y-96323445D01*
X85935719Y-96321740D01*
X85937445Y-96320332D01*
X85975541Y-96274282D01*
X86013949Y-96228509D01*
X86015022Y-96226557D01*
X86016441Y-96224842D01*
X86044853Y-96172294D01*
X86073653Y-96119908D01*
X86074327Y-96117784D01*
X86075385Y-96115827D01*
X86093036Y-96058805D01*
X86111126Y-96001779D01*
X86111375Y-95999563D01*
X86112032Y-95997439D01*
X86118278Y-95938012D01*
X86124940Y-95878621D01*
X86124970Y-95874351D01*
X86124987Y-95874188D01*
X86124972Y-95874025D01*
X86125002Y-95869755D01*
X86125002Y-93469755D01*
X86119168Y-93410250D01*
X86113754Y-93350768D01*
X86113127Y-93348637D01*
X86112909Y-93346416D01*
X86095614Y-93289134D01*
X86078764Y-93231880D01*
X86077733Y-93229908D01*
X86077089Y-93227775D01*
X86049014Y-93174974D01*
X86021347Y-93122052D01*
X86019953Y-93120318D01*
X86018907Y-93118351D01*
X85981119Y-93072018D01*
X85943692Y-93025469D01*
X85941987Y-93024038D01*
X85940579Y-93022312D01*
X85894529Y-92984216D01*
X85848756Y-92945808D01*
X85846804Y-92944735D01*
X85845089Y-92943316D01*
X85792541Y-92914904D01*
X85740155Y-92886104D01*
X85738031Y-92885430D01*
X85736074Y-92884372D01*
X85679052Y-92866721D01*
X85622026Y-92848631D01*
X85619810Y-92848382D01*
X85617686Y-92847725D01*
X85558259Y-92841479D01*
X85498868Y-92834817D01*
X85494598Y-92834787D01*
X85494435Y-92834770D01*
X85494272Y-92834785D01*
X85490002Y-92834755D01*
X83290001Y-92834755D01*
X83230496Y-92840589D01*
X83171014Y-92846003D01*
X83168883Y-92846630D01*
X83166662Y-92846848D01*
X83109380Y-92864143D01*
X83052126Y-92880993D01*
X83050154Y-92882024D01*
X83048021Y-92882668D01*
X82995220Y-92910743D01*
X82942298Y-92938410D01*
X82940564Y-92939804D01*
X82938597Y-92940850D01*
X82892264Y-92978638D01*
X82845715Y-93016065D01*
X82844284Y-93017770D01*
X82842558Y-93019178D01*
X82804462Y-93065228D01*
X82766054Y-93111001D01*
X82764981Y-93112953D01*
X82763562Y-93114668D01*
X82735150Y-93167216D01*
X82706350Y-93219602D01*
X82705676Y-93221726D01*
X82704618Y-93223683D01*
X82686967Y-93280705D01*
X82677000Y-93312124D01*
X82677000Y-91567000D01*
X105283000Y-91567000D01*
X105283000Y-96783734D01*
G37*
%TD.AperFunction*%
%TD*%
M02*
